G04 Layer_Color=8388736*
%FSLAX42Y42*%
%MOMM*%
G71*
G01*
G75*
G04:AMPARAMS|DCode=32|XSize=1.65mm|YSize=1.2mm|CornerRadius=0.35mm|HoleSize=0mm|Usage=FLASHONLY|Rotation=90.000|XOffset=0mm|YOffset=0mm|HoleType=Round|Shape=RoundedRectangle|*
%AMROUNDEDRECTD32*
21,1,1.65,0.50,0,0,90.0*
21,1,0.95,1.20,0,0,90.0*
1,1,0.70,0.25,0.47*
1,1,0.70,0.25,-0.47*
1,1,0.70,-0.25,-0.47*
1,1,0.70,-0.25,0.47*
%
%ADD32ROUNDEDRECTD32*%
G04:AMPARAMS|DCode=33|XSize=1.65mm|YSize=1.2mm|CornerRadius=0.35mm|HoleSize=0mm|Usage=FLASHONLY|Rotation=180.000|XOffset=0mm|YOffset=0mm|HoleType=Round|Shape=RoundedRectangle|*
%AMROUNDEDRECTD33*
21,1,1.65,0.50,0,0,180.0*
21,1,0.95,1.20,0,0,180.0*
1,1,0.70,-0.47,0.25*
1,1,0.70,0.47,0.25*
1,1,0.70,0.47,-0.25*
1,1,0.70,-0.47,-0.25*
%
%ADD33ROUNDEDRECTD33*%
G04:AMPARAMS|DCode=34|XSize=2.8mm|YSize=1.4mm|CornerRadius=0.4mm|HoleSize=0mm|Usage=FLASHONLY|Rotation=180.000|XOffset=0mm|YOffset=0mm|HoleType=Round|Shape=RoundedRectangle|*
%AMROUNDEDRECTD34*
21,1,2.80,0.60,0,0,180.0*
21,1,2.00,1.40,0,0,180.0*
1,1,0.80,-1.00,0.30*
1,1,0.80,1.00,0.30*
1,1,0.80,1.00,-0.30*
1,1,0.80,-1.00,-0.30*
%
%ADD34ROUNDEDRECTD34*%
G04:AMPARAMS|DCode=35|XSize=3.2mm|YSize=2.51mm|CornerRadius=0.41mm|HoleSize=0mm|Usage=FLASHONLY|Rotation=90.000|XOffset=0mm|YOffset=0mm|HoleType=Round|Shape=RoundedRectangle|*
%AMROUNDEDRECTD35*
21,1,3.20,1.69,0,0,90.0*
21,1,2.38,2.51,0,0,90.0*
1,1,0.82,0.84,1.19*
1,1,0.82,0.84,-1.19*
1,1,0.82,-0.84,-1.19*
1,1,0.82,-0.84,1.19*
%
%ADD35ROUNDEDRECTD35*%
G04:AMPARAMS|DCode=36|XSize=1.8mm|YSize=0.7mm|CornerRadius=0.35mm|HoleSize=0mm|Usage=FLASHONLY|Rotation=180.000|XOffset=0mm|YOffset=0mm|HoleType=Round|Shape=RoundedRectangle|*
%AMROUNDEDRECTD36*
21,1,1.80,0.00,0,0,180.0*
21,1,1.10,0.70,0,0,180.0*
1,1,0.70,-0.55,0.00*
1,1,0.70,0.55,0.00*
1,1,0.70,0.55,0.00*
1,1,0.70,-0.55,0.00*
%
%ADD36ROUNDEDRECTD36*%
G04:AMPARAMS|DCode=37|XSize=7.2mm|YSize=2.6mm|CornerRadius=0.42mm|HoleSize=0mm|Usage=FLASHONLY|Rotation=270.000|XOffset=0mm|YOffset=0mm|HoleType=Round|Shape=RoundedRectangle|*
%AMROUNDEDRECTD37*
21,1,7.20,1.75,0,0,270.0*
21,1,6.35,2.60,0,0,270.0*
1,1,0.85,-0.88,-3.17*
1,1,0.85,-0.88,3.17*
1,1,0.85,0.88,3.17*
1,1,0.85,0.88,-3.17*
%
%ADD37ROUNDEDRECTD37*%
G04:AMPARAMS|DCode=38|XSize=2.31mm|YSize=2.89mm|CornerRadius=0.4mm|HoleSize=0mm|Usage=FLASHONLY|Rotation=90.000|XOffset=0mm|YOffset=0mm|HoleType=Round|Shape=RoundedRectangle|*
%AMROUNDEDRECTD38*
21,1,2.31,2.10,0,0,90.0*
21,1,1.51,2.89,0,0,90.0*
1,1,0.80,1.05,0.76*
1,1,0.80,1.05,-0.76*
1,1,0.80,-1.05,-0.76*
1,1,0.80,-1.05,0.76*
%
%ADD38ROUNDEDRECTD38*%
%ADD39R,10.85X1.85*%
%ADD40R,1.60X9.10*%
%ADD41C,1.70*%
%ADD42C,2.00*%
%ADD43C,1.00*%
D32*
X2025Y1500D02*
D03*
X2225D02*
D03*
X2025Y1750D02*
D03*
X2225D02*
D03*
X2025Y1925D02*
D03*
X2225D02*
D03*
X1550D02*
D03*
X1750D02*
D03*
X1600Y1175D02*
D03*
X1400D02*
D03*
D33*
X3325Y625D02*
D03*
Y825D02*
D03*
X800Y1725D02*
D03*
Y1525D02*
D03*
X1000Y1725D02*
D03*
Y1525D02*
D03*
D34*
X900Y1210D02*
D03*
Y940D02*
D03*
X600Y1210D02*
D03*
Y940D02*
D03*
X2775Y860D02*
D03*
Y590D02*
D03*
X3075Y860D02*
D03*
Y590D02*
D03*
D35*
X1500Y1550D02*
D03*
D36*
X1760Y1360D02*
D03*
Y1487D02*
D03*
Y1614D02*
D03*
Y1741D02*
D03*
X1240Y1360D02*
D03*
Y1487D02*
D03*
Y1614D02*
D03*
Y1741D02*
D03*
D37*
X1995Y900D02*
D03*
X2455D02*
D03*
D38*
X225Y479D02*
D03*
Y921D02*
D03*
X1375Y354D02*
D03*
Y796D02*
D03*
D39*
X3062Y862D02*
D03*
D40*
X3525Y500D02*
D03*
D41*
X2775Y450D02*
D03*
X2775Y1000D02*
D03*
X600Y1350D02*
D03*
Y800D02*
D03*
D42*
X707Y178D02*
D03*
X453D02*
D03*
X199D02*
D03*
X961D02*
D03*
X2990D02*
D03*
X3244D02*
D03*
X3498D02*
D03*
X2736D02*
D03*
X3499Y1956D02*
D03*
X197D02*
D03*
X3499Y1702D02*
D03*
D43*
X1450Y1450D02*
D03*
X1550D02*
D03*
Y1550D02*
D03*
X1450D02*
D03*
Y1650D02*
D03*
X1550D02*
D03*
M02*
