M48
;Layer_Color=9474304
;FILE_FORMAT=4:2
METRIC,LZ
;TYPE=PLATED
T1F00S00C0.40
T2F00S00C1.00
%
T01
X001275Y000175
X001375
X001475
X001875Y0001
X0025
X003075Y000375
X00325Y0004
X00335
Y0005
X003275Y0016
X002375Y00205
X001525
X001425
X001325
X001225
Y00195
X001325Y001875
X00145Y00175
X00155
X00155Y00165
Y00155
Y00145
X00145
Y00155
Y00165
X001896Y001614
Y001484
X001575Y0003
X001175
X000875Y00205
X000625
X0004
X0001Y00175
T02
X000199Y000178
X000453
X000707
X000961
X002736
X00299
X003244
X003498
X002775Y00045
X002775Y001
X003499Y001702
Y001956
X0006Y00135
Y0008
X000197Y001956
M30
