G04 Layer_Physical_Order=1*
G04 Layer_Color=255*
%FSLAX42Y42*%
%MOMM*%
G71*
G01*
G75*
G04:AMPARAMS|DCode=10|XSize=1.45mm|YSize=1mm|CornerRadius=0.25mm|HoleSize=0mm|Usage=FLASHONLY|Rotation=90.000|XOffset=0mm|YOffset=0mm|HoleType=Round|Shape=RoundedRectangle|*
%AMROUNDEDRECTD10*
21,1,1.45,0.50,0,0,90.0*
21,1,0.95,1.00,0,0,90.0*
1,1,0.50,0.25,0.47*
1,1,0.50,0.25,-0.47*
1,1,0.50,-0.25,-0.47*
1,1,0.50,-0.25,0.47*
%
%ADD10ROUNDEDRECTD10*%
G04:AMPARAMS|DCode=11|XSize=1.45mm|YSize=1mm|CornerRadius=0.25mm|HoleSize=0mm|Usage=FLASHONLY|Rotation=180.000|XOffset=0mm|YOffset=0mm|HoleType=Round|Shape=RoundedRectangle|*
%AMROUNDEDRECTD11*
21,1,1.45,0.50,0,0,180.0*
21,1,0.95,1.00,0,0,180.0*
1,1,0.50,-0.47,0.25*
1,1,0.50,0.47,0.25*
1,1,0.50,0.47,-0.25*
1,1,0.50,-0.47,-0.25*
%
%ADD11ROUNDEDRECTD11*%
G04:AMPARAMS|DCode=12|XSize=2.6mm|YSize=1.2mm|CornerRadius=0.3mm|HoleSize=0mm|Usage=FLASHONLY|Rotation=180.000|XOffset=0mm|YOffset=0mm|HoleType=Round|Shape=RoundedRectangle|*
%AMROUNDEDRECTD12*
21,1,2.60,0.60,0,0,180.0*
21,1,2.00,1.20,0,0,180.0*
1,1,0.60,-1.00,0.30*
1,1,0.60,1.00,0.30*
1,1,0.60,1.00,-0.30*
1,1,0.60,-1.00,-0.30*
%
%ADD12ROUNDEDRECTD12*%
G04:AMPARAMS|DCode=13|XSize=3.1mm|YSize=2.41mm|CornerRadius=0.36mm|HoleSize=0mm|Usage=FLASHONLY|Rotation=90.000|XOffset=0mm|YOffset=0mm|HoleType=Round|Shape=RoundedRectangle|*
%AMROUNDEDRECTD13*
21,1,3.10,1.69,0,0,90.0*
21,1,2.38,2.41,0,0,90.0*
1,1,0.72,0.84,1.19*
1,1,0.72,0.84,-1.19*
1,1,0.72,-0.84,-1.19*
1,1,0.72,-0.84,1.19*
%
%ADD13ROUNDEDRECTD13*%
G04:AMPARAMS|DCode=14|XSize=1.6mm|YSize=0.5mm|CornerRadius=0.25mm|HoleSize=0mm|Usage=FLASHONLY|Rotation=180.000|XOffset=0mm|YOffset=0mm|HoleType=Round|Shape=RoundedRectangle|*
%AMROUNDEDRECTD14*
21,1,1.60,0.00,0,0,180.0*
21,1,1.10,0.50,0,0,180.0*
1,1,0.50,-0.55,0.00*
1,1,0.50,0.55,0.00*
1,1,0.50,0.55,0.00*
1,1,0.50,-0.55,0.00*
%
%ADD14ROUNDEDRECTD14*%
G04:AMPARAMS|DCode=15|XSize=7.1mm|YSize=2.5mm|CornerRadius=0.38mm|HoleSize=0mm|Usage=FLASHONLY|Rotation=270.000|XOffset=0mm|YOffset=0mm|HoleType=Round|Shape=RoundedRectangle|*
%AMROUNDEDRECTD15*
21,1,7.10,1.75,0,0,270.0*
21,1,6.35,2.50,0,0,270.0*
1,1,0.75,-0.88,-3.17*
1,1,0.75,-0.88,3.17*
1,1,0.75,0.88,3.17*
1,1,0.75,0.88,-3.17*
%
%ADD15ROUNDEDRECTD15*%
G04:AMPARAMS|DCode=16|XSize=2.16mm|YSize=2.74mm|CornerRadius=0.32mm|HoleSize=0mm|Usage=FLASHONLY|Rotation=90.000|XOffset=0mm|YOffset=0mm|HoleType=Round|Shape=RoundedRectangle|*
%AMROUNDEDRECTD16*
21,1,2.16,2.10,0,0,90.0*
21,1,1.51,2.74,0,0,90.0*
1,1,0.65,1.05,0.76*
1,1,0.65,1.05,-0.76*
1,1,0.65,-1.05,-0.76*
1,1,0.65,-1.05,0.76*
%
%ADD16ROUNDEDRECTD16*%
%ADD17C,0.50*%
%ADD18R,10.75X1.75*%
%ADD19R,1.50X9.00*%
%ADD20C,1.60*%
%ADD21C,1.80*%
%ADD22C,0.90*%
G36*
X3600Y1340D02*
X3600Y50D01*
X3150D01*
Y300D01*
X3450D01*
Y740D01*
Y790D01*
X2330D01*
Y1370D01*
X2360Y1400D01*
X3540D01*
X3600Y1340D01*
D02*
G37*
G36*
X1300Y1400D02*
X1450Y1250D01*
X1450Y1125D01*
X1525Y1050D01*
X2100D01*
Y600D01*
X1190Y600D01*
X1125Y665D01*
Y1350D01*
X1175Y1400D01*
X1300Y1400D01*
D02*
G37*
G36*
X550Y450D02*
Y50D01*
X50Y50D01*
Y600D01*
X400D01*
X550Y450D01*
D02*
G37*
G36*
X1075Y975D02*
Y625D01*
X1150Y550D01*
X1800D01*
X1875Y475D01*
X2575D01*
X2625Y525D01*
Y575D01*
Y625D01*
X2675Y675D01*
X3375D01*
X3400Y650D01*
Y375D01*
X3375Y350D01*
X3150D01*
X3100Y300D01*
Y50D01*
X600D01*
Y475D01*
X450Y625D01*
Y975D01*
X475Y1000D01*
X1050D01*
X1075Y975D01*
D02*
G37*
G36*
X1850Y1275D02*
X1675Y1100D01*
X1575D01*
X1550Y1125D01*
X1550Y1250D01*
X1700Y1400D01*
X1850Y1400D01*
Y1275D01*
D02*
G37*
G36*
X2050Y1700D02*
X1675D01*
X1675Y1975D01*
X2050D01*
X2050Y1700D01*
D02*
G37*
G36*
X1175Y1825D02*
Y1775D01*
X1325D01*
Y1700D01*
X1150D01*
X1125Y1725D01*
Y1800D01*
X1100Y1825D01*
X700D01*
X675Y1800D01*
Y1575D01*
X700Y1550D01*
X1075D01*
X1100Y1525D01*
X1325D01*
Y1450D01*
X1125D01*
X1075Y1400D01*
Y1150D01*
X1050Y1125D01*
X475D01*
X400Y1050D01*
Y800D01*
X50D01*
Y1550D01*
X375Y1875D01*
X1125D01*
X1175Y1825D01*
D02*
G37*
G36*
X2000Y1450D02*
X1675D01*
Y1525D01*
X2000D01*
Y1450D01*
D02*
G37*
G36*
X3650Y2050D02*
Y1875D01*
X3600Y1825D01*
X3400D01*
X3350Y1775D01*
Y1600D01*
X3300Y1550D01*
X2375D01*
X2350Y1575D01*
Y2000D01*
X2325Y2025D01*
X1630Y2025D01*
Y1390D01*
X1370D01*
Y1575D01*
X1100D01*
X1000Y1675D01*
X750D01*
Y1775D01*
X1050D01*
Y1725D01*
X1125Y1650D01*
X1370D01*
Y1825D01*
X1250D01*
X1150Y1925D01*
X350D01*
X125Y1700D01*
X50D01*
Y2100D01*
X3600D01*
X3650Y2050D01*
D02*
G37*
D10*
X2025Y1500D02*
D03*
X2225D02*
D03*
X2025Y1750D02*
D03*
X2225D02*
D03*
X2025Y1925D02*
D03*
X2225D02*
D03*
X1550D02*
D03*
X1750D02*
D03*
X1600Y1175D02*
D03*
X1400D02*
D03*
D11*
X3325Y625D02*
D03*
Y825D02*
D03*
X800Y1725D02*
D03*
Y1525D02*
D03*
X1000Y1725D02*
D03*
Y1525D02*
D03*
D12*
X900Y1210D02*
D03*
Y940D02*
D03*
X600Y1210D02*
D03*
Y940D02*
D03*
X2775Y860D02*
D03*
Y590D02*
D03*
X3075Y860D02*
D03*
Y590D02*
D03*
D13*
X1500Y1550D02*
D03*
D14*
X1760Y1360D02*
D03*
Y1487D02*
D03*
Y1614D02*
D03*
Y1741D02*
D03*
X1240Y1360D02*
D03*
Y1487D02*
D03*
Y1614D02*
D03*
Y1741D02*
D03*
D15*
X1995Y900D02*
D03*
X2455D02*
D03*
D16*
X225Y479D02*
D03*
Y921D02*
D03*
X1375Y354D02*
D03*
Y796D02*
D03*
D17*
X3650Y210D02*
Y1375D01*
X3499Y178D02*
X3618D01*
X1760Y1614D02*
X1896D01*
X3550Y1475D02*
X3650Y1375D01*
X3618Y178D02*
X3650Y210D01*
X2218Y1475D02*
Y1925D01*
Y1475D02*
X3550D01*
D18*
X3062Y862D02*
D03*
D19*
X3525Y500D02*
D03*
D20*
X2775Y450D02*
D03*
X2775Y1000D02*
D03*
X600Y1350D02*
D03*
Y800D02*
D03*
D21*
X707Y178D02*
D03*
X453D02*
D03*
X199D02*
D03*
X961D02*
D03*
X2990D02*
D03*
X3244D02*
D03*
X3498D02*
D03*
X2736D02*
D03*
X3499Y1956D02*
D03*
X197D02*
D03*
X3499Y1702D02*
D03*
D22*
X100Y1750D02*
D03*
X875Y2050D02*
D03*
X625D02*
D03*
X400D02*
D03*
X2375D02*
D03*
X1525D02*
D03*
X1425D02*
D03*
X1325D02*
D03*
X1225D02*
D03*
Y1950D02*
D03*
X1325Y1875D02*
D03*
X1550Y1750D02*
D03*
X1450D02*
D03*
X3275Y1600D02*
D03*
X3075Y375D02*
D03*
X3250Y400D02*
D03*
X3350Y500D02*
D03*
Y400D02*
D03*
X1175Y300D02*
D03*
X1575D02*
D03*
X1275Y175D02*
D03*
X1475D02*
D03*
X1375D02*
D03*
X2500Y100D02*
D03*
X1875D02*
D03*
X1450Y1450D02*
D03*
X1550D02*
D03*
Y1550D02*
D03*
X1450D02*
D03*
Y1650D02*
D03*
X1550D02*
D03*
X1896Y1614D02*
D03*
Y1484D02*
D03*
M02*
